<mxfile host="Electron" agent="Mozilla/5.0 (Windows NT 10.0; Win64; x64) AppleWebKit/537.36 (KHTML, like Gecko) draw.io/24.7.17 Chrome/128.0.6613.36 Electron/32.0.1 Safari/537.36" version="24.7.17">
  <diagram name="Page-1" id="0783ab3e-0a74-02c8-0abd-f7b4e66b4bec">
    <mxGraphModel dx="1793" dy="1105" grid="1" gridSize="10" guides="1" tooltips="1" connect="1" arrows="1" fold="1" page="1" pageScale="1" pageWidth="850" pageHeight="1100" background="none" math="0" shadow="0">
      <root>
        <mxCell id="0" />
        <mxCell id="1" parent="0" />
        <mxCell id="1c1d494c118603dd-1" value="Pool" style="swimlane;html=1;childLayout=stackLayout;startSize=20;rounded=0;shadow=0;comic=0;labelBackgroundColor=none;strokeWidth=1;fontFamily=Verdana;fontSize=12;align=center;" parent="1" vertex="1">
          <mxGeometry x="15" y="5" width="820" height="1090" as="geometry" />
        </mxCell>
        <mxCell id="1c1d494c118603dd-29" style="edgeStyle=orthogonalEdgeStyle;rounded=0;html=1;exitX=0.75;exitY=1;labelBackgroundColor=none;startArrow=none;startFill=0;startSize=5;endArrow=classicThin;endFill=1;endSize=5;jettySize=auto;orthogonalLoop=1;strokeWidth=1;fontFamily=Verdana;fontSize=12" parent="1c1d494c118603dd-1" source="60571a20871a0731-3" target="1c1d494c118603dd-5" edge="1">
          <mxGeometry relative="1" as="geometry">
            <Array as="points">
              <mxPoint x="440" y="190" />
              <mxPoint x="440" y="210" />
              <mxPoint x="663" y="210" />
            </Array>
          </mxGeometry>
        </mxCell>
        <mxCell id="1c1d494c118603dd-30" style="edgeStyle=orthogonalEdgeStyle;rounded=0;html=1;exitX=0.25;exitY=1;entryX=0.5;entryY=0;labelBackgroundColor=none;startArrow=none;startFill=0;startSize=5;endArrow=classicThin;endFill=1;endSize=5;jettySize=auto;orthogonalLoop=1;strokeWidth=1;fontFamily=Verdana;fontSize=12" parent="1c1d494c118603dd-1" source="60571a20871a0731-3" target="1c1d494c118603dd-6" edge="1">
          <mxGeometry relative="1" as="geometry">
            <Array as="points">
              <mxPoint x="400" y="190" />
              <mxPoint x="400" y="210" />
              <mxPoint x="130" y="210" />
            </Array>
          </mxGeometry>
        </mxCell>
        <mxCell id="1c1d494c118603dd-31" style="edgeStyle=orthogonalEdgeStyle;rounded=0;html=1;labelBackgroundColor=none;startArrow=none;startFill=0;startSize=5;endArrow=classicThin;endFill=1;endSize=5;jettySize=auto;orthogonalLoop=1;strokeWidth=1;fontFamily=Verdana;fontSize=12;exitX=0;exitY=0.5;exitDx=0;exitDy=0;" parent="1c1d494c118603dd-1" source="1c1d494c118603dd-8" edge="1">
          <mxGeometry relative="1" as="geometry">
            <mxPoint x="465" y="395" as="sourcePoint" />
            <mxPoint x="460" y="310" as="targetPoint" />
            <Array as="points">
              <mxPoint x="550" y="870" />
              <mxPoint x="550" y="270" />
              <mxPoint x="460" y="270" />
            </Array>
          </mxGeometry>
        </mxCell>
        <mxCell id="SefBR-q-HKmVnvprwm0--4" value="" style="endArrow=classic;html=1;rounded=0;exitX=1;exitY=0.5;exitDx=0;exitDy=0;entryX=0.164;entryY=-0.267;entryDx=0;entryDy=0;entryPerimeter=0;" parent="1c1d494c118603dd-1" source="SefBR-q-HKmVnvprwm0--34" target="1c1d494c118603dd-12" edge="1">
          <mxGeometry width="50" height="50" relative="1" as="geometry">
            <mxPoint x="155" y="730" as="sourcePoint" />
            <mxPoint x="350" y="300" as="targetPoint" />
            <Array as="points">
              <mxPoint x="270" y="870" />
              <mxPoint x="270" y="570" />
              <mxPoint x="270" y="270" />
              <mxPoint x="367" y="270" />
              <mxPoint x="367" y="290" />
            </Array>
          </mxGeometry>
        </mxCell>
        <mxCell id="XcPj_83OyLp6RQjUuyKU-4" value="" style="endArrow=classic;html=1;rounded=0;exitX=0;exitY=0.5;exitDx=0;exitDy=0;entryX=0;entryY=0.5;entryDx=0;entryDy=0;" edge="1" parent="1c1d494c118603dd-1" source="XcPj_83OyLp6RQjUuyKU-1" target="60571a20871a0731-5">
          <mxGeometry width="50" height="50" relative="1" as="geometry">
            <mxPoint x="130" y="600" as="sourcePoint" />
            <mxPoint x="180" y="550" as="targetPoint" />
            <Array as="points">
              <mxPoint x="25" y="410" />
              <mxPoint x="25" y="1010" />
            </Array>
          </mxGeometry>
        </mxCell>
        <mxCell id="XcPj_83OyLp6RQjUuyKU-18" value="" style="endArrow=classic;html=1;rounded=0;exitX=0.5;exitY=1;exitDx=0;exitDy=0;entryX=0.145;entryY=0.145;entryDx=0;entryDy=0;entryPerimeter=0;" edge="1" parent="1c1d494c118603dd-1" source="SefBR-q-HKmVnvprwm0--34" target="60571a20871a0731-5">
          <mxGeometry width="50" height="50" relative="1" as="geometry">
            <mxPoint x="140" y="1040" as="sourcePoint" />
            <mxPoint x="190" y="990" as="targetPoint" />
            <Array as="points">
              <mxPoint x="130" y="996" />
            </Array>
          </mxGeometry>
        </mxCell>
        <mxCell id="1c1d494c118603dd-2" value="Lane 1" style="swimlane;html=1;startSize=20;" parent="1c1d494c118603dd-1" vertex="1">
          <mxGeometry y="20" width="250" height="1070" as="geometry" />
        </mxCell>
        <mxCell id="1c1d494c118603dd-34" style="edgeStyle=none;rounded=0;html=1;labelBackgroundColor=none;startArrow=none;startFill=0;startSize=5;endArrow=classicThin;endFill=1;endSize=5;jettySize=auto;orthogonalLoop=1;strokeWidth=1;fontFamily=Verdana;fontSize=12;entryX=0.5;entryY=0;entryDx=0;entryDy=0;" parent="1c1d494c118603dd-2" source="1c1d494c118603dd-6" target="1c1d494c118603dd-7" edge="1">
          <mxGeometry relative="1" as="geometry">
            <mxPoint x="168.0769230769231" y="280" as="targetPoint" />
          </mxGeometry>
        </mxCell>
        <mxCell id="1c1d494c118603dd-6" value="&lt;font style=&quot;font-size: 18px;&quot;&gt;Click&lt;/font&gt;&lt;div&gt;&lt;font size=&quot;3&quot;&gt;Image Compressor Buttorn&lt;/font&gt;&lt;/div&gt;" style="rounded=1;whiteSpace=wrap;html=1;shadow=0;comic=0;labelBackgroundColor=none;strokeWidth=1;fontFamily=Verdana;fontSize=12;align=center;arcSize=50;" parent="1c1d494c118603dd-2" vertex="1">
          <mxGeometry x="10" y="220" width="240" height="40" as="geometry" />
        </mxCell>
        <mxCell id="1c1d494c118603dd-7" value="&lt;font style=&quot;font-size: 18px;&quot;&gt;Upload Image&lt;/font&gt;" style="rounded=1;whiteSpace=wrap;html=1;shadow=0;comic=0;labelBackgroundColor=none;strokeWidth=1;fontFamily=Verdana;fontSize=12;align=center;arcSize=50;" parent="1c1d494c118603dd-2" vertex="1">
          <mxGeometry x="60" y="280" width="140" height="30" as="geometry" />
        </mxCell>
        <mxCell id="SefBR-q-HKmVnvprwm0--34" value="&lt;font style=&quot;font-size: 18px;&quot;&gt;Save Image&lt;/font&gt;" style="rounded=1;whiteSpace=wrap;html=1;shadow=0;comic=0;labelBackgroundColor=none;strokeWidth=1;fontFamily=Verdana;fontSize=12;align=center;arcSize=50;" parent="1c1d494c118603dd-2" vertex="1">
          <mxGeometry x="55" y="830" width="150" height="40" as="geometry" />
        </mxCell>
        <mxCell id="XcPj_83OyLp6RQjUuyKU-1" value="&lt;font style=&quot;font-size: 18px;&quot;&gt;Is image valid&lt;/font&gt;" style="rhombus;whiteSpace=wrap;html=1;" vertex="1" parent="1c1d494c118603dd-2">
          <mxGeometry x="77.5" y="340" width="105" height="100" as="geometry" />
        </mxCell>
        <mxCell id="XcPj_83OyLp6RQjUuyKU-2" value="" style="endArrow=classic;html=1;rounded=0;exitX=0.5;exitY=1;exitDx=0;exitDy=0;entryX=0.5;entryY=0;entryDx=0;entryDy=0;" edge="1" parent="1c1d494c118603dd-2" source="1c1d494c118603dd-7" target="XcPj_83OyLp6RQjUuyKU-1">
          <mxGeometry width="50" height="50" relative="1" as="geometry">
            <mxPoint x="170" y="400" as="sourcePoint" />
            <mxPoint x="220" y="350" as="targetPoint" />
          </mxGeometry>
        </mxCell>
        <mxCell id="XcPj_83OyLp6RQjUuyKU-3" value="&lt;font style=&quot;font-size: 18px;&quot;&gt;NO&lt;/font&gt;" style="text;html=1;align=center;verticalAlign=middle;resizable=0;points=[];autosize=1;strokeColor=none;fillColor=none;" vertex="1" parent="1c1d494c118603dd-2">
          <mxGeometry x="30" y="360" width="50" height="40" as="geometry" />
        </mxCell>
        <mxCell id="XcPj_83OyLp6RQjUuyKU-6" value="&lt;font style=&quot;font-size: 18px;&quot;&gt;Compress Imge&lt;/font&gt;" style="rounded=1;whiteSpace=wrap;html=1;shadow=0;comic=0;labelBackgroundColor=none;strokeWidth=1;fontFamily=Verdana;fontSize=12;align=center;arcSize=50;" vertex="1" parent="1c1d494c118603dd-2">
          <mxGeometry x="55" y="500" width="150" height="30" as="geometry" />
        </mxCell>
        <mxCell id="XcPj_83OyLp6RQjUuyKU-7" value="" style="endArrow=classic;html=1;rounded=0;exitX=0.5;exitY=1;exitDx=0;exitDy=0;entryX=0.5;entryY=0;entryDx=0;entryDy=0;" edge="1" parent="1c1d494c118603dd-2" source="XcPj_83OyLp6RQjUuyKU-1" target="XcPj_83OyLp6RQjUuyKU-6">
          <mxGeometry width="50" height="50" relative="1" as="geometry">
            <mxPoint x="180" y="610" as="sourcePoint" />
            <mxPoint x="230" y="560" as="targetPoint" />
          </mxGeometry>
        </mxCell>
        <mxCell id="XcPj_83OyLp6RQjUuyKU-8" value="&lt;font style=&quot;font-size: 18px;&quot;&gt;YES&lt;/font&gt;" style="text;html=1;align=center;verticalAlign=middle;resizable=0;points=[];autosize=1;strokeColor=none;fillColor=none;" vertex="1" parent="1c1d494c118603dd-2">
          <mxGeometry x="122.5" y="440" width="60" height="40" as="geometry" />
        </mxCell>
        <mxCell id="XcPj_83OyLp6RQjUuyKU-9" value="&lt;font style=&quot;font-size: 18px;&quot;&gt;Preview Image&lt;/font&gt;" style="rounded=1;whiteSpace=wrap;html=1;shadow=0;comic=0;labelBackgroundColor=none;strokeWidth=1;fontFamily=Verdana;fontSize=12;align=center;arcSize=50;" vertex="1" parent="1c1d494c118603dd-2">
          <mxGeometry x="55" y="570" width="150" height="30" as="geometry" />
        </mxCell>
        <mxCell id="XcPj_83OyLp6RQjUuyKU-10" value="" style="endArrow=classic;html=1;rounded=0;exitX=0.5;exitY=1;exitDx=0;exitDy=0;entryX=0.5;entryY=0;entryDx=0;entryDy=0;" edge="1" parent="1c1d494c118603dd-2" source="XcPj_83OyLp6RQjUuyKU-6" target="XcPj_83OyLp6RQjUuyKU-9">
          <mxGeometry width="50" height="50" relative="1" as="geometry">
            <mxPoint x="180" y="600" as="sourcePoint" />
            <mxPoint x="230" y="550" as="targetPoint" />
          </mxGeometry>
        </mxCell>
        <mxCell id="XcPj_83OyLp6RQjUuyKU-11" value="&lt;font style=&quot;font-size: 18px;&quot;&gt;Rename Image&lt;/font&gt;" style="rounded=1;whiteSpace=wrap;html=1;shadow=0;comic=0;labelBackgroundColor=none;strokeWidth=1;fontFamily=Verdana;fontSize=12;align=center;arcSize=50;" vertex="1" parent="1c1d494c118603dd-2">
          <mxGeometry x="55" y="650" width="150" height="30" as="geometry" />
        </mxCell>
        <mxCell id="XcPj_83OyLp6RQjUuyKU-12" value="" style="endArrow=classic;html=1;rounded=0;exitX=0.5;exitY=1;exitDx=0;exitDy=0;entryX=0.5;entryY=0;entryDx=0;entryDy=0;" edge="1" parent="1c1d494c118603dd-2" source="XcPj_83OyLp6RQjUuyKU-9" target="XcPj_83OyLp6RQjUuyKU-11">
          <mxGeometry width="50" height="50" relative="1" as="geometry">
            <mxPoint x="180" y="600" as="sourcePoint" />
            <mxPoint x="230" y="550" as="targetPoint" />
          </mxGeometry>
        </mxCell>
        <mxCell id="XcPj_83OyLp6RQjUuyKU-13" value="&lt;font style=&quot;font-size: 18px;&quot;&gt;Browse Location&lt;/font&gt;" style="rounded=1;whiteSpace=wrap;html=1;shadow=0;comic=0;labelBackgroundColor=none;strokeWidth=1;fontFamily=Verdana;fontSize=12;align=center;arcSize=50;" vertex="1" parent="1c1d494c118603dd-2">
          <mxGeometry x="55" y="730" width="150" height="30" as="geometry" />
        </mxCell>
        <mxCell id="XcPj_83OyLp6RQjUuyKU-14" value="" style="endArrow=classic;html=1;rounded=0;exitX=0.5;exitY=1;exitDx=0;exitDy=0;entryX=0.5;entryY=0;entryDx=0;entryDy=0;" edge="1" parent="1c1d494c118603dd-2" source="XcPj_83OyLp6RQjUuyKU-11" target="XcPj_83OyLp6RQjUuyKU-13">
          <mxGeometry width="50" height="50" relative="1" as="geometry">
            <mxPoint x="180" y="600" as="sourcePoint" />
            <mxPoint x="230" y="550" as="targetPoint" />
          </mxGeometry>
        </mxCell>
        <mxCell id="XcPj_83OyLp6RQjUuyKU-17" value="" style="endArrow=classic;html=1;rounded=0;exitX=0.5;exitY=1;exitDx=0;exitDy=0;entryX=0.5;entryY=0;entryDx=0;entryDy=0;" edge="1" parent="1c1d494c118603dd-2" source="XcPj_83OyLp6RQjUuyKU-13" target="SefBR-q-HKmVnvprwm0--34">
          <mxGeometry width="50" height="50" relative="1" as="geometry">
            <mxPoint x="180" y="710" as="sourcePoint" />
            <mxPoint x="230" y="660" as="targetPoint" />
          </mxGeometry>
        </mxCell>
        <mxCell id="1c1d494c118603dd-3" value="Lane 2" style="swimlane;html=1;startSize=20;" parent="1c1d494c118603dd-1" vertex="1">
          <mxGeometry x="250" y="20" width="325" height="1070" as="geometry" />
        </mxCell>
        <mxCell id="60571a20871a0731-3" value="" style="whiteSpace=wrap;html=1;rounded=0;shadow=0;comic=0;labelBackgroundColor=none;strokeWidth=1;fillColor=#000000;fontFamily=Verdana;fontSize=12;align=center;rotation=0;" parent="1c1d494c118603dd-3" vertex="1">
          <mxGeometry x="93" y="160" width="147" height="10" as="geometry" />
        </mxCell>
        <mxCell id="XcPj_83OyLp6RQjUuyKU-40" style="edgeStyle=orthogonalEdgeStyle;rounded=0;orthogonalLoop=1;jettySize=auto;html=1;entryX=0.5;entryY=0;entryDx=0;entryDy=0;" edge="1" parent="1c1d494c118603dd-3" target="XcPj_83OyLp6RQjUuyKU-39">
          <mxGeometry relative="1" as="geometry">
            <mxPoint x="169.25" y="400" as="sourcePoint" />
          </mxGeometry>
        </mxCell>
        <mxCell id="1c1d494c118603dd-11" value="&lt;font style=&quot;font-size: 18px;&quot;&gt;Click Complaint Management System Button&lt;/font&gt;" style="rounded=1;whiteSpace=wrap;html=1;shadow=0;comic=0;labelBackgroundColor=none;strokeWidth=1;fontFamily=Verdana;fontSize=12;align=center;arcSize=50;" parent="1c1d494c118603dd-3" vertex="1">
          <mxGeometry x="64.25" y="330" width="210" height="70" as="geometry" />
        </mxCell>
        <mxCell id="1c1d494c118603dd-39" style="edgeStyle=none;rounded=0;html=1;labelBackgroundColor=none;startArrow=none;startFill=0;startSize=5;endArrow=classicThin;endFill=1;endSize=5;jettySize=auto;orthogonalLoop=1;strokeWidth=1;fontFamily=Verdana;fontSize=12" parent="1c1d494c118603dd-3" source="1c1d494c118603dd-12" target="1c1d494c118603dd-11" edge="1">
          <mxGeometry relative="1" as="geometry" />
        </mxCell>
        <mxCell id="1c1d494c118603dd-12" value="" style="whiteSpace=wrap;html=1;rounded=0;shadow=0;comic=0;labelBackgroundColor=none;strokeWidth=1;fillColor=#000000;fontFamily=Verdana;fontSize=12;align=center;rotation=0;" parent="1c1d494c118603dd-3" vertex="1">
          <mxGeometry x="93" y="290" width="147" height="10" as="geometry" />
        </mxCell>
        <mxCell id="1c1d494c118603dd-16" value="&lt;font style=&quot;font-size: 18px;&quot;&gt;Complain Successfully Added&lt;/font&gt;" style="rounded=1;whiteSpace=wrap;html=1;shadow=0;comic=0;labelBackgroundColor=none;strokeWidth=1;fontFamily=Verdana;fontSize=12;align=center;arcSize=50;" parent="1c1d494c118603dd-3" vertex="1">
          <mxGeometry x="74.25" y="840" width="190" height="40" as="geometry" />
        </mxCell>
        <mxCell id="60571a20871a0731-4" value="" style="ellipse;whiteSpace=wrap;html=1;rounded=0;shadow=0;comic=0;labelBackgroundColor=none;strokeWidth=1;fillColor=#000000;fontFamily=Verdana;fontSize=12;align=center;" parent="1c1d494c118603dd-3" vertex="1">
          <mxGeometry x="146.5" y="30" width="40" height="40" as="geometry" />
        </mxCell>
        <mxCell id="60571a20871a0731-8" value="Open Software" style="rounded=1;whiteSpace=wrap;html=1;shadow=0;comic=0;labelBackgroundColor=none;strokeWidth=1;fontFamily=Verdana;fontSize=12;align=center;arcSize=50;" parent="1c1d494c118603dd-3" vertex="1">
          <mxGeometry x="116.5" y="100" width="100" height="30" as="geometry" />
        </mxCell>
        <mxCell id="1c1d494c118603dd-27" style="edgeStyle=orthogonalEdgeStyle;rounded=0;html=1;labelBackgroundColor=none;startArrow=none;startFill=0;startSize=5;endArrow=classicThin;endFill=1;endSize=5;jettySize=auto;orthogonalLoop=1;strokeWidth=1;fontFamily=Verdana;fontSize=12" parent="1c1d494c118603dd-3" source="60571a20871a0731-4" target="60571a20871a0731-8" edge="1">
          <mxGeometry relative="1" as="geometry" />
        </mxCell>
        <mxCell id="XcPj_83OyLp6RQjUuyKU-21" value="" style="endArrow=classic;html=1;rounded=0;exitX=0.5;exitY=1;exitDx=0;exitDy=0;entryX=0.5;entryY=0;entryDx=0;entryDy=0;" edge="1" parent="1c1d494c118603dd-3" source="60571a20871a0731-8" target="60571a20871a0731-3">
          <mxGeometry width="50" height="50" relative="1" as="geometry">
            <mxPoint x="-60" y="430" as="sourcePoint" />
            <mxPoint x="-10" y="380" as="targetPoint" />
          </mxGeometry>
        </mxCell>
        <mxCell id="60571a20871a0731-5" value="" style="shape=mxgraph.bpmn.shape;html=1;verticalLabelPosition=bottom;labelBackgroundColor=#ffffff;verticalAlign=top;perimeter=ellipsePerimeter;outline=end;symbol=terminate;rounded=0;shadow=0;comic=0;strokeWidth=1;fontFamily=Verdana;fontSize=12;align=center;" parent="1c1d494c118603dd-3" vertex="1">
          <mxGeometry x="150.25" y="970" width="40" height="40" as="geometry" />
        </mxCell>
        <mxCell id="SefBR-q-HKmVnvprwm0--2" value="" style="endArrow=classic;html=1;rounded=0;exitX=0.5;exitY=1;exitDx=0;exitDy=0;entryX=0.5;entryY=0;entryDx=0;entryDy=0;" parent="1c1d494c118603dd-3" source="1c1d494c118603dd-16" target="60571a20871a0731-5" edge="1">
          <mxGeometry width="50" height="50" relative="1" as="geometry">
            <mxPoint x="20" y="850" as="sourcePoint" />
            <mxPoint x="70" y="800" as="targetPoint" />
          </mxGeometry>
        </mxCell>
        <mxCell id="XcPj_83OyLp6RQjUuyKU-42" style="edgeStyle=orthogonalEdgeStyle;rounded=0;orthogonalLoop=1;jettySize=auto;html=1;entryX=0.5;entryY=0;entryDx=0;entryDy=0;" edge="1" parent="1c1d494c118603dd-3" source="XcPj_83OyLp6RQjUuyKU-39" target="XcPj_83OyLp6RQjUuyKU-41">
          <mxGeometry relative="1" as="geometry" />
        </mxCell>
        <mxCell id="XcPj_83OyLp6RQjUuyKU-39" value="&lt;span style=&quot;font-size: 18px;&quot;&gt;Gives Name&lt;/span&gt;" style="rounded=1;whiteSpace=wrap;html=1;shadow=0;comic=0;labelBackgroundColor=none;strokeWidth=1;fontFamily=Verdana;fontSize=12;align=center;arcSize=50;" vertex="1" parent="1c1d494c118603dd-3">
          <mxGeometry x="94" y="440" width="152.5" height="30" as="geometry" />
        </mxCell>
        <mxCell id="XcPj_83OyLp6RQjUuyKU-44" style="edgeStyle=orthogonalEdgeStyle;rounded=0;orthogonalLoop=1;jettySize=auto;html=1;entryX=0.5;entryY=0;entryDx=0;entryDy=0;" edge="1" parent="1c1d494c118603dd-3" source="XcPj_83OyLp6RQjUuyKU-41" target="XcPj_83OyLp6RQjUuyKU-43">
          <mxGeometry relative="1" as="geometry" />
        </mxCell>
        <mxCell id="XcPj_83OyLp6RQjUuyKU-41" value="&lt;span style=&quot;font-size: 18px;&quot;&gt;Write Name&lt;/span&gt;" style="rounded=1;whiteSpace=wrap;html=1;shadow=0;comic=0;labelBackgroundColor=none;strokeWidth=1;fontFamily=Verdana;fontSize=12;align=center;arcSize=50;" vertex="1" parent="1c1d494c118603dd-3">
          <mxGeometry x="93" y="500" width="152.5" height="30" as="geometry" />
        </mxCell>
        <mxCell id="XcPj_83OyLp6RQjUuyKU-46" style="edgeStyle=orthogonalEdgeStyle;rounded=0;orthogonalLoop=1;jettySize=auto;html=1;entryX=0.5;entryY=0;entryDx=0;entryDy=0;" edge="1" parent="1c1d494c118603dd-3" source="XcPj_83OyLp6RQjUuyKU-43" target="XcPj_83OyLp6RQjUuyKU-45">
          <mxGeometry relative="1" as="geometry" />
        </mxCell>
        <mxCell id="XcPj_83OyLp6RQjUuyKU-43" value="&lt;span style=&quot;font-size: 18px;&quot;&gt;Write Addrss&lt;/span&gt;" style="rounded=1;whiteSpace=wrap;html=1;shadow=0;comic=0;labelBackgroundColor=none;strokeWidth=1;fontFamily=Verdana;fontSize=12;align=center;arcSize=50;" vertex="1" parent="1c1d494c118603dd-3">
          <mxGeometry x="94" y="570" width="152.5" height="30" as="geometry" />
        </mxCell>
        <mxCell id="XcPj_83OyLp6RQjUuyKU-48" style="edgeStyle=orthogonalEdgeStyle;rounded=0;orthogonalLoop=1;jettySize=auto;html=1;entryX=0.5;entryY=0;entryDx=0;entryDy=0;" edge="1" parent="1c1d494c118603dd-3" source="XcPj_83OyLp6RQjUuyKU-45" target="XcPj_83OyLp6RQjUuyKU-47">
          <mxGeometry relative="1" as="geometry" />
        </mxCell>
        <mxCell id="XcPj_83OyLp6RQjUuyKU-45" value="&lt;span style=&quot;font-size: 18px;&quot;&gt;Give Complaint&lt;/span&gt;" style="rounded=1;whiteSpace=wrap;html=1;shadow=0;comic=0;labelBackgroundColor=none;strokeWidth=1;fontFamily=Verdana;fontSize=12;align=center;arcSize=50;" vertex="1" parent="1c1d494c118603dd-3">
          <mxGeometry x="94" y="640" width="152.5" height="30" as="geometry" />
        </mxCell>
        <mxCell id="XcPj_83OyLp6RQjUuyKU-49" style="edgeStyle=orthogonalEdgeStyle;rounded=0;orthogonalLoop=1;jettySize=auto;html=1;entryX=1;entryY=0.5;entryDx=0;entryDy=0;exitX=1;exitY=0.5;exitDx=0;exitDy=0;" edge="1" parent="1c1d494c118603dd-3" source="XcPj_83OyLp6RQjUuyKU-47" target="XcPj_83OyLp6RQjUuyKU-39">
          <mxGeometry relative="1" as="geometry">
            <mxPoint x="304.75" y="360" as="targetPoint" />
            <Array as="points">
              <mxPoint x="267" y="750" />
              <mxPoint x="267" y="455" />
            </Array>
          </mxGeometry>
        </mxCell>
        <mxCell id="XcPj_83OyLp6RQjUuyKU-47" value="&lt;font style=&quot;font-size: 18px;&quot;&gt;Submit Now&lt;/font&gt;" style="rhombus;whiteSpace=wrap;html=1;" vertex="1" parent="1c1d494c118603dd-3">
          <mxGeometry x="122.75" y="700" width="93" height="100" as="geometry" />
        </mxCell>
        <mxCell id="XcPj_83OyLp6RQjUuyKU-51" value="&lt;font style=&quot;font-size: 18px;&quot;&gt;YES&lt;/font&gt;" style="text;html=1;align=center;verticalAlign=middle;resizable=0;points=[];autosize=1;strokeColor=none;fillColor=none;" vertex="1" parent="1c1d494c118603dd-3">
          <mxGeometry x="165" y="790" width="60" height="40" as="geometry" />
        </mxCell>
        <mxCell id="XcPj_83OyLp6RQjUuyKU-52" value="&lt;font style=&quot;font-size: 18px;&quot;&gt;NO&lt;/font&gt;" style="text;html=1;align=center;verticalAlign=middle;resizable=0;points=[];autosize=1;strokeColor=none;fillColor=none;" vertex="1" parent="1c1d494c118603dd-3">
          <mxGeometry x="211.25" y="700" width="50" height="40" as="geometry" />
        </mxCell>
        <mxCell id="XcPj_83OyLp6RQjUuyKU-56" value="" style="endArrow=classic;html=1;rounded=0;exitX=0.5;exitY=1;exitDx=0;exitDy=0;entryX=0.5;entryY=0;entryDx=0;entryDy=0;" edge="1" parent="1c1d494c118603dd-3" source="XcPj_83OyLp6RQjUuyKU-47" target="1c1d494c118603dd-16">
          <mxGeometry width="50" height="50" relative="1" as="geometry">
            <mxPoint x="95" y="770" as="sourcePoint" />
            <mxPoint x="205" y="540" as="targetPoint" />
          </mxGeometry>
        </mxCell>
        <mxCell id="1c1d494c118603dd-4" value="Lane 3" style="swimlane;html=1;startSize=20;" parent="1c1d494c118603dd-1" vertex="1">
          <mxGeometry x="575" y="20" width="245" height="1070" as="geometry" />
        </mxCell>
        <mxCell id="1c1d494c118603dd-33" style="rounded=0;html=1;labelBackgroundColor=none;startArrow=none;startFill=0;startSize=5;endArrow=classicThin;endFill=1;endSize=5;jettySize=auto;orthogonalLoop=1;strokeWidth=1;fontFamily=Verdana;fontSize=12;entryX=0.5;entryY=0;entryDx=0;entryDy=0;" parent="1c1d494c118603dd-4" source="1c1d494c118603dd-5" target="XcPj_83OyLp6RQjUuyKU-19" edge="1">
          <mxGeometry relative="1" as="geometry">
            <mxPoint x="107.5" y="268" as="targetPoint" />
          </mxGeometry>
        </mxCell>
        <mxCell id="1c1d494c118603dd-5" value="&lt;font style=&quot;font-size: 18px;&quot;&gt;Click&lt;/font&gt;&lt;div&gt;&lt;font size=&quot;3&quot;&gt;PDF Locker Button&lt;/font&gt;&lt;/div&gt;" style="rounded=1;whiteSpace=wrap;html=1;shadow=0;comic=0;labelBackgroundColor=none;strokeWidth=1;fontFamily=Verdana;fontSize=12;align=center;arcSize=50;" parent="1c1d494c118603dd-4" vertex="1">
          <mxGeometry x="-7.5" y="220" width="190" height="50" as="geometry" />
        </mxCell>
        <mxCell id="1c1d494c118603dd-8" value="&lt;font style=&quot;font-size: 18px;&quot;&gt;Access Pdf&lt;/font&gt;" style="rounded=1;whiteSpace=wrap;html=1;shadow=0;comic=0;labelBackgroundColor=none;strokeWidth=1;fontFamily=Verdana;fontSize=12;align=center;arcSize=50;" parent="1c1d494c118603dd-4" vertex="1">
          <mxGeometry x="20" y="830" width="135" height="40" as="geometry" />
        </mxCell>
        <mxCell id="XcPj_83OyLp6RQjUuyKU-19" value="&lt;font style=&quot;font-size: 18px;&quot;&gt;Sees Text Fields&lt;/font&gt;" style="rounded=1;whiteSpace=wrap;html=1;shadow=0;comic=0;labelBackgroundColor=none;strokeWidth=1;fontFamily=Verdana;fontSize=12;align=center;arcSize=50;" vertex="1" parent="1c1d494c118603dd-4">
          <mxGeometry x="11.25" y="300" width="152.5" height="30" as="geometry" />
        </mxCell>
        <mxCell id="XcPj_83OyLp6RQjUuyKU-29" style="edgeStyle=orthogonalEdgeStyle;rounded=0;orthogonalLoop=1;jettySize=auto;html=1;entryX=0.5;entryY=0;entryDx=0;entryDy=0;" edge="1" parent="1c1d494c118603dd-4" source="XcPj_83OyLp6RQjUuyKU-23" target="XcPj_83OyLp6RQjUuyKU-28">
          <mxGeometry relative="1" as="geometry" />
        </mxCell>
        <mxCell id="XcPj_83OyLp6RQjUuyKU-23" value="&lt;font style=&quot;font-size: 18px;&quot;&gt;Filling The Fiels&lt;/font&gt;" style="rhombus;whiteSpace=wrap;html=1;" vertex="1" parent="1c1d494c118603dd-4">
          <mxGeometry x="27.5" y="360" width="120" height="90" as="geometry" />
        </mxCell>
        <mxCell id="XcPj_83OyLp6RQjUuyKU-24" value="" style="endArrow=classic;html=1;rounded=0;exitX=0.5;exitY=1;exitDx=0;exitDy=0;entryX=0.5;entryY=0;entryDx=0;entryDy=0;" edge="1" parent="1c1d494c118603dd-4" source="XcPj_83OyLp6RQjUuyKU-19" target="XcPj_83OyLp6RQjUuyKU-23">
          <mxGeometry width="50" height="50" relative="1" as="geometry">
            <mxPoint x="-365" y="530" as="sourcePoint" />
            <mxPoint x="-315" y="480" as="targetPoint" />
          </mxGeometry>
        </mxCell>
        <mxCell id="XcPj_83OyLp6RQjUuyKU-27" value="&lt;font style=&quot;font-size: 18px;&quot;&gt;NO&lt;/font&gt;" style="text;html=1;align=center;verticalAlign=middle;resizable=0;points=[];autosize=1;strokeColor=none;fillColor=none;" vertex="1" parent="1c1d494c118603dd-4">
          <mxGeometry x="147.5" y="370" width="50" height="40" as="geometry" />
        </mxCell>
        <mxCell id="XcPj_83OyLp6RQjUuyKU-31" style="edgeStyle=orthogonalEdgeStyle;rounded=0;orthogonalLoop=1;jettySize=auto;html=1;" edge="1" parent="1c1d494c118603dd-4" source="XcPj_83OyLp6RQjUuyKU-28" target="XcPj_83OyLp6RQjUuyKU-30">
          <mxGeometry relative="1" as="geometry" />
        </mxCell>
        <mxCell id="XcPj_83OyLp6RQjUuyKU-28" value="&lt;span style=&quot;font-size: 18px;&quot;&gt;Press Protect Pdf Button&lt;/span&gt;" style="rounded=1;whiteSpace=wrap;html=1;shadow=0;comic=0;labelBackgroundColor=none;strokeWidth=1;fontFamily=Verdana;fontSize=12;align=center;arcSize=50;" vertex="1" parent="1c1d494c118603dd-4">
          <mxGeometry x="11.25" y="500" width="152.5" height="50" as="geometry" />
        </mxCell>
        <mxCell id="XcPj_83OyLp6RQjUuyKU-33" style="edgeStyle=orthogonalEdgeStyle;rounded=0;orthogonalLoop=1;jettySize=auto;html=1;exitX=0.5;exitY=1;exitDx=0;exitDy=0;entryX=0.5;entryY=0;entryDx=0;entryDy=0;" edge="1" parent="1c1d494c118603dd-4" source="XcPj_83OyLp6RQjUuyKU-30" target="XcPj_83OyLp6RQjUuyKU-32">
          <mxGeometry relative="1" as="geometry" />
        </mxCell>
        <mxCell id="XcPj_83OyLp6RQjUuyKU-30" value="&lt;span style=&quot;font-size: 18px;&quot;&gt;Select Location&lt;/span&gt;" style="rounded=1;whiteSpace=wrap;html=1;shadow=0;comic=0;labelBackgroundColor=none;strokeWidth=1;fontFamily=Verdana;fontSize=12;align=center;arcSize=50;" vertex="1" parent="1c1d494c118603dd-4">
          <mxGeometry x="11.25" y="570" width="152.5" height="30" as="geometry" />
        </mxCell>
        <mxCell id="XcPj_83OyLp6RQjUuyKU-35" value="" style="edgeStyle=orthogonalEdgeStyle;rounded=0;orthogonalLoop=1;jettySize=auto;html=1;" edge="1" parent="1c1d494c118603dd-4" source="XcPj_83OyLp6RQjUuyKU-32" target="XcPj_83OyLp6RQjUuyKU-34">
          <mxGeometry relative="1" as="geometry">
            <Array as="points">
              <mxPoint x="88" y="670" />
              <mxPoint x="88" y="670" />
            </Array>
          </mxGeometry>
        </mxCell>
        <mxCell id="XcPj_83OyLp6RQjUuyKU-32" value="&lt;span style=&quot;font-size: 18px;&quot;&gt;Open the Pdf&lt;/span&gt;" style="rounded=1;whiteSpace=wrap;html=1;shadow=0;comic=0;labelBackgroundColor=none;strokeWidth=1;fontFamily=Verdana;fontSize=12;align=center;arcSize=50;" vertex="1" parent="1c1d494c118603dd-4">
          <mxGeometry x="11.25" y="650" width="152.5" height="30" as="geometry" />
        </mxCell>
        <mxCell id="XcPj_83OyLp6RQjUuyKU-36" style="edgeStyle=orthogonalEdgeStyle;rounded=0;orthogonalLoop=1;jettySize=auto;html=1;entryX=0.5;entryY=0;entryDx=0;entryDy=0;" edge="1" parent="1c1d494c118603dd-4" source="XcPj_83OyLp6RQjUuyKU-34" target="1c1d494c118603dd-8">
          <mxGeometry relative="1" as="geometry" />
        </mxCell>
        <mxCell id="XcPj_83OyLp6RQjUuyKU-34" value="&lt;span style=&quot;font-size: 18px;&quot;&gt;Write Password&lt;/span&gt;" style="rounded=1;whiteSpace=wrap;html=1;shadow=0;comic=0;labelBackgroundColor=none;strokeWidth=1;fontFamily=Verdana;fontSize=12;align=center;arcSize=50;" vertex="1" parent="1c1d494c118603dd-4">
          <mxGeometry x="11.25" y="740" width="152.5" height="30" as="geometry" />
        </mxCell>
        <mxCell id="XcPj_83OyLp6RQjUuyKU-50" value="&lt;font style=&quot;font-size: 18px;&quot;&gt;YES&lt;/font&gt;" style="text;html=1;align=center;verticalAlign=middle;resizable=0;points=[];autosize=1;strokeColor=none;fillColor=none;" vertex="1" parent="1c1d494c118603dd-4">
          <mxGeometry x="80" y="450" width="60" height="40" as="geometry" />
        </mxCell>
        <mxCell id="XcPj_83OyLp6RQjUuyKU-26" style="edgeStyle=orthogonalEdgeStyle;rounded=0;orthogonalLoop=1;jettySize=auto;html=1;exitX=1;exitY=0.5;exitDx=0;exitDy=0;entryX=1;entryY=0.5;entryDx=0;entryDy=0;" edge="1" parent="1c1d494c118603dd-1" source="XcPj_83OyLp6RQjUuyKU-23" target="60571a20871a0731-5">
          <mxGeometry relative="1" as="geometry">
            <mxPoint x="465" y="996" as="targetPoint" />
            <Array as="points">
              <mxPoint x="770" y="425" />
              <mxPoint x="770" y="1010" />
            </Array>
          </mxGeometry>
        </mxCell>
        <mxCell id="XcPj_83OyLp6RQjUuyKU-55" style="edgeStyle=orthogonalEdgeStyle;rounded=0;orthogonalLoop=1;jettySize=auto;html=1;entryX=0.855;entryY=0.145;entryDx=0;entryDy=0;entryPerimeter=0;" edge="1" parent="1c1d494c118603dd-1" source="1c1d494c118603dd-8" target="60571a20871a0731-5">
          <mxGeometry relative="1" as="geometry">
            <mxPoint x="455" y="990" as="targetPoint" />
            <Array as="points">
              <mxPoint x="663" y="996" />
            </Array>
          </mxGeometry>
        </mxCell>
      </root>
    </mxGraphModel>
  </diagram>
</mxfile>
